<svg width="400" height="400" viewBox="0 0 400 400" fill="none" xmlns="http://www.w3.org/2000/svg">
<path d="M167.578 18.1562L166.797 24.4844C155.859 72.5313 183.203 93.75 183.203 93.75L191.797 83.5938C191.797 83.5938 173.047 68.1563 177.734 33.9375C209.766 43 223.047 62.5313 227.734 72.0625C193.359 84.375 183.984 116.797 165.234 140.781L181.641 137.734L180.078 162.188C180.078 162.188 214.453 155.391 233.984 176.016C237.891 169.297 240.234 161.25 238.672 153.203L236.328 131.172C233.984 130.312 230.859 128.828 227.734 126.953C218.359 121.25 208.203 112.031 208.203 112.031C206.641 110.547 206.641 107.969 207.422 105.938C208.984 103.984 211.328 103.047 212.891 103.828C212.891 103.828 221.484 106.563 229.297 109.063C237.891 112.109 244.922 120.234 245.703 129.844C246.484 136.406 248.047 144.609 248.828 151.953C250.391 163.984 246.484 176.016 239.453 185.313L244.922 199.609H274.609L280.078 185.313C273.047 176.016 269.141 163.984 270.703 151.953C271.484 144.609 273.047 136.406 273.828 129.844C274.609 120.234 281.641 112.109 290.234 109.063C298.047 106.563 306.641 103.828 306.641 103.828C308.203 103.047 310.547 103.984 312.109 105.938C312.891 107.969 312.891 110.547 311.328 112.031C311.328 112.031 301.172 121.25 291.797 126.953C288.672 128.828 285.547 130.312 283.203 131.172L280.859 153.203C279.297 161.25 281.641 169.297 285.547 176.016C305.078 155.391 339.453 162.188 339.453 162.188L337.891 137.734L354.297 140.781C335.547 116.797 326.172 84.375 291.797 72.0625C296.484 62.5313 309.766 43 341.797 33.9375C346.484 68.1563 327.734 83.5938 327.734 83.5938L336.328 93.75C336.328 93.75 363.672 72.5313 352.734 24.4844L351.953 18.1562C318.125 23.875 284.844 45.7891 266.016 67.2969C261.719 67.1953 257.813 66.8906 253.516 67.2969C220.078 40.1484 205.625 23.4531 167.578 18.1562ZM186.875 178.516C216.719 220.078 118.359 214.922 66.8672 271.875C46.4687 293.75 41.4531 315.859 46.5937 334.609C56.1484 368.984 102.734 391.641 159.141 377.578C198.047 367.422 234.141 352.578 264.453 346.328C291.875 340.078 314.297 342.422 328.75 365.078L340.703 361.172C338.438 331.484 329.453 307.422 312.188 292.813C299.063 281.719 281.016 275.625 256.797 276.328C233.906 276.953 205.313 283.594 169.922 297.656C148.828 305.078 110.156 319.297 89.9219 307.5C82.8125 303.125 80.625 295.781 81.1719 288.516C108.047 329.141 178.125 267.422 236.25 260.625C236.25 260.625 241.406 191.641 186.875 178.516ZM334.219 178.516C292.734 188.203 284.141 220.781 283.281 260.625C303.984 260.469 322.266 279.141 322.266 279.141C322.266 279.141 301.172 202.109 334.219 178.516ZM255.859 179.531H263.672C266.016 179.531 268.359 181.719 268.359 184.453C268.359 187.109 266.016 189.297 263.672 189.297H255.859C253.516 189.297 251.172 187.109 251.172 184.453C251.172 181.719 253.516 179.531 255.859 179.531ZM303.828 302.734C314.531 311.797 321.172 325.234 324.766 341.641C312.422 332.266 297.422 329.141 280.156 330.703C261.328 332.266 239.609 338.516 215.859 346.328L236.25 326.797C214.141 337.734 194.766 340.078 177.344 336.172L240.547 304.766L192.734 313.516C211.328 297.734 267.109 272.734 303.828 302.734Z" fill="url(#paint0_linear_6_3)"/>
<defs>
<linearGradient id="paint0_linear_6_3" x1="200.018" y1="18.1562" x2="200.018" y2="381.813" gradientUnits="userSpaceOnUse">
<stop stop-color="#FF6E33"/>
<stop offset="1" stop-color="#99421F"/>
</linearGradient>
</defs>
</svg>
