<svg width="2087" height="406" viewBox="0 0 2087 406" fill="none" xmlns="http://www.w3.org/2000/svg">
<path d="M186.631 43.8867L185.947 49.4238C176.377 91.4648 200.303 110.031 200.303 110.031L207.822 101.145C207.822 101.145 191.416 87.6367 195.518 57.6953C223.545 65.625 235.166 82.7148 239.268 91.0547C209.189 101.828 200.986 130.197 184.58 151.184L198.936 148.518L197.568 169.914C197.568 169.914 227.646 163.967 244.736 182.014C248.154 176.135 250.205 169.094 248.838 162.053L246.787 142.775C244.736 142.023 242.002 140.725 239.268 139.084C231.064 134.094 222.178 126.027 222.178 126.027C220.811 124.729 220.811 122.473 221.494 120.695C222.861 118.986 224.912 118.166 226.279 118.85C226.279 118.85 233.799 121.242 240.635 123.43C248.154 126.096 254.307 133.205 254.99 141.613C255.674 147.355 257.041 154.533 257.725 160.959C259.092 171.486 255.674 182.014 249.522 190.148L254.307 202.658H280.283L285.068 190.148C278.916 182.014 275.498 171.486 276.865 160.959C277.549 154.533 278.916 147.355 279.6 141.613C280.283 133.205 286.436 126.096 293.955 123.43C300.791 121.242 308.311 118.85 308.311 118.85C309.678 118.166 311.729 118.986 313.096 120.695C313.779 122.473 313.779 124.729 312.412 126.027C312.412 126.027 303.525 134.094 295.322 139.084C292.588 140.725 289.854 142.023 287.803 142.775L285.752 162.053C284.385 169.094 286.436 176.135 289.854 182.014C306.943 163.967 337.022 169.914 337.022 169.914L335.654 148.518L350.01 151.184C333.604 130.197 325.4 101.828 295.322 91.0547C299.424 82.7148 311.045 65.625 339.072 57.6953C343.174 87.6367 326.768 101.145 326.768 101.145L334.287 110.031C334.287 110.031 358.213 91.4648 348.643 49.4238L347.959 43.8867C318.359 48.8906 289.238 68.0654 272.764 86.8848C269.004 86.7959 265.586 86.5293 261.826 86.8848C232.568 63.1299 219.922 48.5215 186.631 43.8867ZM203.516 184.201C229.629 220.568 143.564 216.057 98.5088 265.891C80.6602 285.031 76.2715 304.377 80.7695 320.783C89.1299 350.861 129.893 370.686 179.248 358.381C213.291 349.494 244.873 336.506 271.397 331.037C295.391 325.568 315.01 327.619 327.656 347.443L338.115 344.025C336.133 318.049 328.272 296.994 313.164 284.211C301.68 274.504 285.889 269.172 264.697 269.787C244.668 270.334 219.648 276.145 188.682 288.449C170.225 294.943 136.387 307.385 118.682 297.063C112.461 293.234 110.547 286.809 111.025 280.451C134.541 315.998 195.859 261.994 246.719 256.047C246.719 256.047 251.23 195.686 203.516 184.201ZM332.441 184.201C296.143 192.678 288.623 221.184 287.871 256.047C305.986 255.91 321.982 272.248 321.982 272.248C321.982 272.248 303.525 204.846 332.441 184.201ZM263.877 185.09H270.713C272.764 185.09 274.814 187.004 274.814 189.396C274.814 191.721 272.764 193.635 270.713 193.635H263.877C261.826 193.635 259.775 191.721 259.775 189.396C259.775 187.004 261.826 185.09 263.877 185.09ZM305.85 292.893C315.215 300.822 321.025 312.58 324.17 326.936C313.369 318.732 300.244 315.998 285.137 317.365C268.662 318.732 249.658 324.201 228.877 331.037L246.719 313.947C227.373 323.518 210.42 325.568 195.176 322.15L250.479 294.67L208.643 302.326C224.912 288.518 273.721 266.643 305.85 292.893Z" fill="url(#paint0_linear_1_2)"/>
<path d="M458.5 200.3H566.8V226.1H458.5V200.3ZM461.5 311H431.5V101H579.7V127.1H461.5V311ZM614.8 311V152H642.4V195.2L639.7 184.4C644.1 173.4 651.5 165 661.9 159.2C672.3 153.4 685.1 150.5 700.3 150.5V178.4C699.1 178.2 697.9 178.1 696.7 178.1C695.7 178.1 694.7 178.1 693.7 178.1C678.3 178.1 666.1 182.7 657.1 191.9C648.1 201.1 643.6 214.4 643.6 231.8V311H614.8ZM805.131 312.8C788.131 312.8 773.131 309.3 760.131 302.3C747.331 295.3 737.331 285.7 730.131 273.5C723.131 261.3 719.631 247.3 719.631 231.5C719.631 215.7 723.031 201.7 729.831 189.5C736.831 177.3 746.331 167.8 758.331 161C770.531 154 784.231 150.5 799.431 150.5C814.831 150.5 828.431 153.9 840.231 160.7C852.031 167.5 861.231 177.1 867.831 189.5C874.631 201.7 878.031 216 878.031 232.4C878.031 233.6 877.931 235 877.731 236.6C877.731 238.2 877.631 239.7 877.431 241.1H742.131V220.4H862.431L850.731 227.6C850.931 217.4 848.831 208.3 844.431 200.3C840.031 192.3 833.931 186.1 826.131 181.7C818.531 177.1 809.631 174.8 799.431 174.8C789.431 174.8 780.531 177.1 772.731 181.7C764.931 186.1 758.831 192.4 754.431 200.6C750.031 208.6 747.831 217.8 747.831 228.2V233C747.831 243.6 750.231 253.1 755.031 261.5C760.031 269.7 766.931 276.1 775.731 280.7C784.531 285.3 794.631 287.6 806.031 287.6C815.431 287.6 823.931 286 831.531 282.8C839.331 279.6 846.131 274.8 851.931 268.4L867.831 287C860.631 295.4 851.631 301.8 840.831 306.2C830.231 310.6 818.331 312.8 805.131 312.8ZM918.023 311V152H946.823V311H918.023ZM932.423 121.4C926.823 121.4 922.123 119.6 918.323 116C914.723 112.4 912.923 108 912.923 102.8C912.923 97.4 914.723 92.9 918.323 89.3C922.123 85.7 926.823 83.9 932.423 83.9C938.023 83.9 942.623 85.7 946.223 89.3C950.023 92.7 951.923 97 951.923 102.2C951.923 107.6 950.123 112.2 946.523 116C942.923 119.6 938.223 121.4 932.423 121.4ZM1071.41 371C1056.81 371 1042.61 368.9 1028.81 364.7C1015.21 360.7 1004.11 354.9 995.512 347.3L1009.31 325.1C1016.71 331.5 1025.81 336.5 1036.61 340.1C1047.41 343.9 1058.71 345.8 1070.51 345.8C1089.31 345.8 1103.11 341.4 1111.91 332.6C1120.71 323.8 1125.11 310.4 1125.11 292.4V258.8L1128.11 227.3L1126.61 195.5V152H1153.91V289.4C1153.91 317.4 1146.91 338 1132.91 351.2C1118.91 364.4 1098.41 371 1071.41 371ZM1067.81 304.4C1052.41 304.4 1038.61 301.2 1026.41 294.8C1014.41 288.2 1004.81 279.1 997.612 267.5C990.612 255.9 987.112 242.5 987.112 227.3C987.112 211.9 990.612 198.5 997.612 187.1C1004.81 175.5 1014.41 166.5 1026.41 160.1C1038.61 153.7 1052.41 150.5 1067.81 150.5C1081.41 150.5 1093.81 153.3 1105.01 158.9C1116.21 164.3 1125.11 172.7 1131.71 184.1C1138.51 195.5 1141.91 209.9 1141.91 227.3C1141.91 244.5 1138.51 258.8 1131.71 270.2C1125.11 281.6 1116.21 290.2 1105.01 296C1093.81 301.6 1081.41 304.4 1067.81 304.4ZM1071.11 279.2C1081.71 279.2 1091.11 277 1099.31 272.6C1107.51 268.2 1113.91 262.1 1118.51 254.3C1123.31 246.5 1125.71 237.5 1125.71 227.3C1125.71 217.1 1123.31 208.1 1118.51 200.3C1113.91 192.5 1107.51 186.5 1099.31 182.3C1091.11 177.9 1081.71 175.7 1071.11 175.7C1060.51 175.7 1051.01 177.9 1042.61 182.3C1034.41 186.5 1027.91 192.5 1023.11 200.3C1018.51 208.1 1016.21 217.1 1016.21 227.3C1016.21 237.5 1018.51 246.5 1023.11 254.3C1027.91 262.1 1034.41 268.2 1042.61 272.6C1051.01 277 1060.51 279.2 1071.11 279.2ZM1293.84 150.5C1306.84 150.5 1318.24 153 1328.04 158C1338.04 163 1345.84 170.6 1351.44 180.8C1357.04 191 1359.84 203.9 1359.84 219.5V311H1331.04V222.8C1331.04 207.4 1327.24 195.8 1319.64 188C1312.24 180.2 1301.74 176.3 1288.14 176.3C1277.94 176.3 1269.04 178.3 1261.44 182.3C1253.84 186.3 1247.94 192.2 1243.74 200C1239.74 207.8 1237.74 217.5 1237.74 229.1V311H1208.94V88.4H1237.74V194.9L1232.04 183.5C1237.24 173.1 1245.24 165 1256.04 159.2C1266.84 153.4 1279.44 150.5 1293.84 150.5ZM1467.74 312.8C1451.74 312.8 1439.34 308.5 1430.54 299.9C1421.74 291.3 1417.34 279 1417.34 263V117.2H1446.14V261.8C1446.14 270.4 1448.24 277 1452.44 281.6C1456.84 286.2 1463.04 288.5 1471.04 288.5C1480.04 288.5 1487.54 286 1493.54 281L1502.54 301.7C1498.14 305.5 1492.84 308.3 1486.64 310.1C1480.64 311.9 1474.34 312.8 1467.74 312.8ZM1390.34 175.7V152H1491.74V175.7H1390.34ZM1568.56 200.3H1676.86V226.1H1568.56V200.3ZM1571.56 311H1541.56V101H1689.76V127.1H1571.56V311ZM1790.91 312.8C1774.91 312.8 1760.71 309.3 1748.31 302.3C1735.91 295.3 1726.11 285.7 1718.91 273.5C1711.71 261.1 1708.11 247.1 1708.11 231.5C1708.11 215.7 1711.71 201.7 1718.91 189.5C1726.11 177.3 1735.91 167.8 1748.31 161C1760.71 154 1774.91 150.5 1790.91 150.5C1806.71 150.5 1820.81 154 1833.21 161C1845.81 167.8 1855.61 177.3 1862.61 189.5C1869.81 201.5 1873.41 215.5 1873.41 231.5C1873.41 247.3 1869.81 261.3 1862.61 273.5C1855.61 285.7 1845.81 295.3 1833.21 302.3C1820.81 309.3 1806.71 312.8 1790.91 312.8ZM1790.91 287.6C1801.11 287.6 1810.21 285.3 1818.21 280.7C1826.41 276.1 1832.81 269.6 1837.41 261.2C1842.01 252.6 1844.31 242.7 1844.31 231.5C1844.31 220.1 1842.01 210.3 1837.41 202.1C1832.81 193.7 1826.41 187.2 1818.21 182.6C1810.21 178 1801.11 175.7 1790.91 175.7C1780.71 175.7 1771.61 178 1763.61 182.6C1755.61 187.2 1749.21 193.7 1744.41 202.1C1739.61 210.3 1737.21 220.1 1737.21 231.5C1737.21 242.7 1739.61 252.6 1744.41 261.2C1749.21 269.6 1755.61 276.1 1763.61 280.7C1771.61 285.3 1780.71 287.6 1790.91 287.6ZM1884.86 311L1953.26 222.2L1952.96 236.9L1887.86 152H1919.96L1969.76 217.4H1957.46L2007.26 152H2038.76L1972.76 237.5L1973.06 222.2L2042.06 311H2009.36L1956.86 241.4L1968.56 243.2L1916.96 311H1884.86Z" fill="black"/>
<defs>
<linearGradient id="paint0_linear_1_2" x1="215.016" y1="43.8867" x2="215.016" y2="362.086" gradientUnits="userSpaceOnUse">
<stop stop-color="#FF6E33"/>
<stop offset="1" stop-color="#99421F"/>
</linearGradient>
</defs>
</svg>
